<?xml version="1.0" encoding="UTF-8" standalone="no"?>
<!-- Created with Inkscape (http://www.inkscape.org/) -->
<svg
   xmlns:dc="http://purl.org/dc/elements/1.1/"
   xmlns:cc="http://creativecommons.org/ns#"
   xmlns:rdf="http://www.w3.org/1999/02/22-rdf-syntax-ns#"
   xmlns:svg="http://www.w3.org/2000/svg"
   xmlns="http://www.w3.org/2000/svg"
   xmlns:sodipodi="http://sodipodi.sourceforge.net/DTD/sodipodi-0.dtd"
   xmlns:inkscape="http://www.inkscape.org/namespaces/inkscape"
   id="svg2"
   sodipodi:version="0.32"
   inkscape:version="0.46"
   width="991"
   height="922"
   version="1.0"
   sodipodi:docname="Magic Cube 2.svg"
   inkscape:output_extension="org.inkscape.output.svg.inkscape">
  <sodipodi:namedview
     inkscape:window-height="734"
     inkscape:window-width="890"
     inkscape:pageshadow="2"
     inkscape:pageopacity="0.0"
     guidetolerance="10.0"
     gridtolerance="10.0"
     objecttolerance="10.0"
     borderopacity="1.0"
     bordercolor="#666666"
     pagecolor="#ffffff"
     id="base"
     showgrid="false"
     inkscape:zoom="0.4724568"
     inkscape:cx="728.78792"
     inkscape:cy="500.50151"
     inkscape:window-x="1354"
     inkscape:window-y="249"
     inkscape:current-layer="svg2"
     showguides="true"
     inkscape:guide-bbox="true"
     inkscape:showpageshadow="false" />
  <metadata
     id="metadata7">
    <rdf:RDF>
      <cc:Work
         rdf:about="">
        <dc:format>image/svg+xml</dc:format>
        <dc:type
           rdf:resource="http://purl.org/dc/dcmitype/StillImage" />
      </cc:Work>
    </rdf:RDF>
  </metadata>
  <defs
     id="defs5">
    <inkscape:perspective
       id="perspective9"
       inkscape:persp3d-origin="372.04724 : 350.78739 : 1"
       inkscape:vp_z="744.09448 : 526.18109 : 1"
       inkscape:vp_y="0 : 1000 : 0"
       inkscape:vp_x="0 : 526.18109 : 1"
       sodipodi:type="inkscape:persp3d" />
  </defs>
  <path
     style="fill:none;fill-rule:evenodd;stroke:#000000;stroke-width:1px;stroke-linecap:butt;stroke-linejoin:miter;stroke-opacity:1"
     d="M 8.9799547,44.95775 L 80.819593,643.15369 L 497.4053,487.735 L 495.39418,7.5412724 L 8.9799547,44.95775 z"
     id="path2431"
     sodipodi:nodetypes="ccccc" />
  <path
     style="fill:none;fill-rule:evenodd;stroke:#000000;stroke-width:1px;stroke-linecap:butt;stroke-linejoin:miter;stroke-opacity:1"
     d="M 497.34825,487.71224 L 80.813453,643.09211 L 478.81478,911.69552 L 901.02257,646.80099 L 497.34825,487.71224 z"
     id="path2389"
     sodipodi:nodetypes="ccccc" />
  <path
     style="fill:none;fill-rule:evenodd;stroke:#000000;stroke-width:1px;stroke-linecap:butt;stroke-linejoin:miter;stroke-opacity:1"
     d="M 497.49885,487.78177 L 495.39417,7.5412723 L 967.49659,46.080245 L 901.00484,646.79046 L 497.49885,487.78177 z"
     id="path2425"
     sodipodi:nodetypes="ccccc" />
  <path
     style="fill:none;fill-rule:evenodd;stroke:#000000;stroke-width:1px;stroke-linecap:butt;stroke-linejoin:miter;stroke-opacity:1"
     d="M 284.68461,23.769289 L 312.73894,556.55059 L 721.17991,759.57374"
     id="path2394"
     sodipodi:nodetypes="ccc" />
  <path
     style="fill:none;fill-rule:evenodd;stroke:#000000;stroke-width:1px;stroke-linecap:butt;stroke-linejoin:miter;stroke-opacity:1"
     d="M 700.43648,23.443272 L 676.02223,558.12475 L 250.31624,757.36749"
     id="path2396"
     sodipodi:nodetypes="ccc" />
  <path
     style="fill:none;fill-rule:evenodd;stroke:#000000;stroke-width:1px;stroke-linecap:butt;stroke-linejoin:miter;stroke-opacity:1"
     d="M 47.587018,367.65768 L 496.40318,262.06411 L 931.53413,369.77428"
     id="path2398"
     sodipodi:nodetypes="ccc" />
  <path
     transform="matrix(0.8101543,0.1065,1.1706121e-2,1.2358716,0,0)"
     style="font-size:82.89170837px;font-style:normal;font-weight:normal;fill:#ff0000;fill-opacity:1;stroke:#000000;stroke-width:1px;stroke-linecap:butt;stroke-linejoin:miter;stroke-opacity:1;font-family:Bitstream Vera Sans"
     d="M 639.43805,16.822012 L 632.15264,16.822012 L 632.15264,-29.602202 C 630.39873,-27.929212 628.09843,-26.256269 625.25175,-24.583368 C 622.40503,-22.910383 619.8484,-21.655676 617.58184,-20.819242 L 617.58184,-27.8618 C 621.65625,-29.777544 625.218,-32.098078 628.2671,-34.823408 C 631.31615,-37.548634 633.47479,-40.192964 634.74301,-42.756403 L 639.43805,-42.756403 L 639.43805,16.822012 z"
     id="text2400" />
  <path
     transform="matrix(0.8414075,0.1034275,0,1.1884848,0,0)"
     style="font-size:86.95302582px;font-style:normal;font-weight:normal;fill:#ff0000;fill-opacity:1;stroke:#000000;stroke-width:1px;stroke-linecap:butt;stroke-linejoin:miter;stroke-opacity:1;font-family:Bitstream Vera Sans"
     d="M 636.09265,6.9123604 L 643.4378,6.2330399 C 644.0605,9.6862641 645.24931,12.191256 647.00423,13.748023 C 648.75913,15.304805 651.00937,16.083193 653.75498,16.083187 C 656.10427,16.083193 658.16346,15.545398 659.93255,14.469801 C 661.70158,13.394218 663.15221,11.95774 664.28445,10.160362 C 665.41661,8.3630057 666.36483,5.9358525 667.1291,2.8788948 C 667.8933,-0.17802599 668.27542,-3.2915752 668.27546,-6.4617622 C 668.27542,-6.8013944 668.26127,-7.3108843 668.233,-7.9902334 C 666.70449,-5.5559747 664.617,-3.5817014 661.97051,-2.0674077 C 659.32396,-0.55306715 656.45808,0.20409142 653.37286,0.20407032 C 648.22133,0.20409142 643.86236,-1.6640381 640.29594,-5.4003239 C 636.7295,-9.1365563 634.94629,-14.061625 634.94629,-20.175545 C 634.94629,-26.487517 636.80734,-31.568263 640.52946,-35.417799 C 644.25156,-39.267221 648.9148,-41.191961 654.51921,-41.192024 C 658.56681,-41.191961 662.26768,-40.102219 665.62186,-37.922794 C 668.97597,-35.74325 671.52342,-32.636777 673.26422,-28.603365 C 675.00493,-24.569854 675.87531,-18.731949 675.87535,-11.089633 C 675.87531,-3.1358978 675.01201,3.1973444 673.28544,7.9101124 C 671.5588,12.622907 668.99012,16.210565 665.5794,18.673097 C 662.16862,21.135634 658.17054,22.366901 653.58515,22.366902 C 648.71667,22.366901 644.73982,21.015338 641.65458,18.312208 C 638.56933,15.609084 636.71535,11.809139 636.09265,6.9123604 L 636.09265,6.9123604 z M 667.38385,-20.557663 C 667.38381,-24.944895 666.21623,-28.426409 663.8811,-31.002216 C 661.54591,-33.577918 658.73664,-34.865795 655.45328,-34.865851 C 652.05666,-34.865795 649.09879,-33.47885 646.57966,-30.705013 C 644.0605,-27.931072 642.80092,-24.336338 642.80094,-19.9208 C 642.80092,-15.95806 643.99681,-12.738367 646.3886,-10.261711 C 648.78035,-7.7849929 651.73115,-6.5466494 655.24099,-6.5466773 C 658.77909,-6.5466494 661.68743,-7.7849929 663.96602,-10.261711 C 666.24454,-12.738367 667.38381,-16.170347 667.38385,-20.557663 L 667.38385,-20.557663 z"
     id="text2404" />
  <path
     transform="matrix(0.8567861,0.1659959,0,1.1671525,0,0)"
     style="font-size:98.21660614px;font-style:normal;font-weight:normal;fill:#ff0000;fill-opacity:1;stroke:#000000;stroke-width:1px;stroke-linecap:butt;stroke-linejoin:miter;stroke-opacity:1;font-family:Bitstream Vera Sans"
     d="M 795.56617,-16.163128 L 786.93385,-16.163128 L 786.93385,-71.170182 C 784.85568,-69.187893 782.1301,-67.205659 778.75713,-65.223474 C 775.38411,-63.24119 772.35481,-61.754515 769.66922,-60.763442 L 769.66922,-69.108017 C 774.4969,-71.377942 778.71714,-74.127493 782.32995,-77.356677 C 785.94271,-80.58574 788.50043,-83.718949 790.00312,-86.756314 L 795.56617,-86.756314 L 795.56617,-16.163128 z"
     id="text2408" />
  <path
     transform="matrix(0.8852519,5.4583807e-2,-4.2552377e-2,1.1269982,0,0)"
     style="font-size:102.34962463px;font-style:normal;font-weight:normal;fill:#ff0000;fill-opacity:1;stroke:#000000;stroke-width:1px;stroke-linecap:butt;stroke-linejoin:miter;stroke-opacity:1;font-family:Bitstream Vera Sans"
     d="M 793.43062,0.037258193 L 793.43062,-8.6084865 L 840.85728,-8.6084865 L 840.85728,-1.6119301 C 836.19286,3.3523536 831.57014,9.9491001 826.9891,18.178329 C 822.40799,26.40765 818.86807,34.870143 816.36933,43.565834 C 814.57019,49.696164 813.42076,56.40952 812.92103,63.705921 L 803.67558,63.705921 C 803.77552,57.942097 804.90829,50.978865 807.07391,42.816203 C 809.23949,34.653583 812.34629,26.782465 816.39432,19.202825 C 820.4423,11.623274 824.7485,5.2347585 829.31296,0.037258193 L 793.43062,0.037258193 z"
     id="text2412" />
  <path
     transform="matrix(0.8381368,0.3919016,6.8597172e-2,1.2251977,0,0)"
     style="font-size:73.84951782px;font-style:normal;font-weight:normal;fill:#00ff00;fill-opacity:1;stroke:#000000;stroke-width:0.99999994px;stroke-linecap:butt;stroke-linejoin:miter;stroke-opacity:1;font-family:Bitstream Vera Sans"
     d="M 385.82573,332.65093 L 385.82573,338.88919 L 350.88424,338.88919 C 350.83616,337.32662 351.08857,335.82415 351.64148,334.38177 C 352.53094,332.00186 353.95529,329.65801 355.91452,327.3502 C 357.87373,325.04242 360.70439,322.37403 364.40649,319.34503 C 370.15192,314.6333 374.03431,310.90116 376.05365,308.14861 C 378.07295,305.39611 379.08261,302.79383 379.08264,300.34176 C 379.08261,297.76957 378.1631,295.6 376.3241,293.83305 C 374.48505,292.06619 372.0871,291.18274 369.13026,291.18269 C 366.0051,291.18274 363.50499,292.12028 361.62992,293.99532 C 359.75482,295.87045 358.80526,298.46672 358.78123,301.78414 L 352.11026,301.09901 C 352.567,296.12286 354.28583,292.33063 357.26674,289.72229 C 360.24763,287.11405 364.25022,285.8099 369.2745,285.80985 C 374.34682,285.8099 378.36142,287.21622 381.31832,290.02879 C 384.27515,292.84147 385.75358,296.3272 385.75362,300.486 C 385.75358,302.60152 385.32087,304.68094 384.45548,306.72426 C 383.59002,308.76766 382.15366,310.91919 380.14639,313.17888 C 378.13906,315.43863 374.80357,318.53973 370.13992,322.48219 C 366.2455,325.75159 363.74539,327.96923 362.63958,329.13514 C 361.53375,330.30107 360.62025,331.47299 359.89907,332.65093 L 385.82573,332.65093 z"
     id="text2420" />
  <path
     transform="matrix(0.9051843,0.3320729,-2.9057294e-2,1.0940876,0,0)"
     style="font-size:84.10398102px;font-style:normal;font-weight:normal;fill:#ff0000;fill-opacity:1;stroke:#000000;stroke-width:1px;stroke-linecap:butt;stroke-linejoin:miter;stroke-opacity:1;font-family:Bitstream Vera Sans"
     d="M 759.01377,274.39639 L 759.01377,259.98209 L 732.89555,259.98209 L 732.89555,253.20613 L 760.36897,214.19305 L 766.40573,214.19305 L 766.40573,253.20613 L 774.53687,253.20613 L 774.53687,259.98209 L 766.40573,259.98209 L 766.40573,274.39639 L 759.01377,274.39639 z M 759.01377,253.20613 L 759.01377,226.06124 L 740.1643,253.20613 L 759.01377,253.20613 z"
     id="text2428" />
  <path
     transform="matrix(0.8324305,0.1304114,3.1477424e-2,1.2062329,0,0)"
     style="font-size:77.12232971px;font-style:normal;font-weight:normal;fill:#ff0000;fill-opacity:1;stroke:#000000;stroke-width:1px;stroke-linecap:butt;stroke-linejoin:miter;stroke-opacity:1;font-family:Bitstream Vera Sans"
     d="M 595.74403,165.1138 L 602.86128,164.51128 C 603.38847,167.97577 604.61233,170.5804 606.53287,172.32519 C 608.45338,174.06998 610.76931,174.94238 613.48066,174.94238 C 616.74428,174.94238 619.50581,173.71224 621.76528,171.25195 C 624.0247,168.79168 625.15442,165.52804 625.15445,161.46103 C 625.15442,157.59489 624.06863,154.54465 621.89709,152.31029 C 619.72548,150.07598 616.88235,148.95881 613.36769,148.95878 C 611.18354,148.95881 609.21281,149.45463 607.45548,150.44624 C 605.69812,151.43792 604.31735,152.72454 603.31316,154.30613 L 596.94907,153.47766 L 602.29642,125.12165 L 629.74865,125.12165 L 629.74865,131.59872 L 607.71908,131.59872 L 604.74415,146.43573 C 608.05798,144.12612 611.53501,142.97129 615.17524,142.97125 C 619.99536,142.97129 624.06235,144.64077 627.37624,147.97969 C 630.69005,151.31867 632.34697,155.61161 632.34701,160.85851 C 632.34697,165.85441 630.89089,170.17245 627.97875,173.81265 C 624.43893,178.28133 619.60623,180.51567 613.48066,180.51567 C 608.45966,180.51567 604.36128,179.10979 601.18552,176.29804 C 598.00974,173.4863 596.19591,169.75822 595.74403,165.1138 L 595.74403,165.1138 z"
     id="text2432" />
  <path
     transform="matrix(0.9300448,9.5315817e-2,-0.1020776,1.0647556,0,0)"
     style="font-size:120.66734314px;font-style:normal;font-weight:normal;fill:#ff0000;fill-opacity:1;stroke:#000000;stroke-width:1px;stroke-linecap:butt;stroke-linejoin:miter;stroke-opacity:1;font-family:Bitstream Vera Sans"
     d="M 1026.1721,-21.362285 L 1015.6255,-20.537411 C 1014.6828,-24.700994 1013.3472,-27.72553 1011.619,-29.611029 C 1008.7515,-32.635492 1005.2164,-34.14776 1001.0135,-34.147839 C 997.63537,-34.14776 994.66975,-33.205048 992.1166,-31.319698 C 988.7778,-28.884281 986.14606,-25.329469 984.22137,-20.65525 C 982.29665,-15.980902 981.29502,-9.3229934 981.21647,-0.68150505 C 983.76964,-4.5701503 986.89238,-7.4572079 990.58469,-9.3426864 C 994.27696,-11.228059 998.14601,-12.170771 1002.1919,-12.170827 C 1009.2622,-12.170771 1015.2818,-9.5684915 1020.2507,-4.3639801 C 1025.2195,0.84062766 1027.704,7.5672754 1027.704,15.815983 C 1027.704,21.236609 1026.5354,26.27423 1024.1983,30.928861 C 1021.8611,35.583518 1018.65,39.14815 1014.565,41.622769 C 1010.4798,44.097392 1005.8448,45.334702 1000.6599,45.334703 C 991.82198,45.334702 984.61415,42.084307 979.03645,35.583509 C 973.45872,29.082728 970.66986,18.369191 970.66987,3.442867 C 970.66986,-13.250963 973.75332,-25.388389 979.92024,-32.969446 C 985.30155,-39.568358 992.54865,-42.867853 1001.6616,-42.867939 C 1008.4569,-42.867853 1014.0248,-40.962788 1018.3653,-37.152738 C 1022.7056,-33.342527 1025.3079,-28.079048 1026.1721,-21.362285 L 1026.1721,-21.362285 z M 982.86622,15.874903 C 982.86621,19.527942 983.64198,23.023835 985.19355,26.362592 C 986.74508,29.701383 988.91528,32.244744 991.70416,33.99268 C 994.493,35.740637 997.41933,36.61461 1000.4832,36.614602 C 1004.961,36.61461 1008.8104,34.807744 1012.0314,31.193999 C 1015.2523,27.58028 1016.8628,22.670318 1016.8628,16.464099 C 1016.8628,10.493613 1015.272,5.7898692 1012.0903,2.3528544 C 1008.9086,-1.0840774 1004.9021,-2.802564 1000.0707,-2.8026107 C 995.27859,-2.802564 991.21314,-1.0840774 987.87439,2.3528544 C 984.53559,5.7898692 982.86621,10.297214 982.86622,15.874903 L 982.86622,15.874903 z"
     id="text2436" />
  <path
     transform="matrix(0.7383996,0.2105444,0.1717363,1.4032485,0,0)"
     style="font-size:92.30761719px;font-style:normal;font-weight:normal;fill:#0000ff;fill-opacity:1;stroke:#000000;stroke-width:1px;stroke-linecap:butt;stroke-linejoin:miter;stroke-opacity:1;font-family:Bitstream Vera Sans"
     d="M 26.83342,68.001995 C 23.468025,66.770062 20.974039,65.012252 19.351455,62.728561 C 17.728853,60.444953 16.917556,57.710583 16.917562,54.525443 C 16.917556,49.717809 18.645317,45.67635 22.100852,42.401054 C 25.556363,39.125881 30.15371,37.488264 35.892908,37.488197 C 41.662103,37.488264 46.304522,39.163441 49.82018,42.513734 C 53.335759,45.86415 55.093569,49.943169 55.093613,54.750803 C 55.093569,57.815751 54.289784,60.482513 52.682257,62.751097 C 51.074646,65.019764 48.633244,66.770062 45.358044,68.001995 C 49.414492,69.324143 52.501927,71.457553 54.620356,74.40223 C 56.738698,77.346965 57.797891,80.862584 57.797938,84.949096 C 57.797891,90.598143 55.799697,95.345731 51.803351,99.191873 C 47.806923,103.03802 42.548519,104.9611 36.028124,104.9611 C 29.507677,104.9611 24.249274,103.03051 20.252896,99.169337 C 16.2565,95.308171 14.258306,90.492975 14.25831,84.723736 C 14.258306,80.426888 15.347547,76.828637 17.526036,73.928973 C 19.70451,71.029369 22.806968,69.053711 26.83342,68.001995 L 26.83342,68.001995 z M 25.210825,54.255011 C 25.21081,57.380055 26.217419,59.934136 28.230654,61.917264 C 30.243854,63.900475 32.858032,64.89206 36.073196,64.892021 C 39.198165,64.89206 41.759759,63.907987 43.757985,61.9398 C 45.756146,59.971696 46.755242,57.560343 46.755279,54.705731 C 46.755242,51.731026 45.726098,49.229528 43.667841,47.20123 C 41.609519,45.173045 39.047925,44.158925 35.983052,44.158865 C 32.88808,44.158925 30.318974,45.150509 28.275726,47.133622 C 26.232443,49.116848 25.21081,51.490642 25.210825,54.255011 L 25.210825,54.255011 z M 22.596644,84.768808 C 22.596632,87.082525 23.145009,89.321102 24.241775,91.484548 C 25.338514,93.648018 26.96862,95.323195 29.132096,96.510084 C 31.295535,97.696989 33.624257,98.290437 36.118268,98.290431 C 39.994437,98.290437 43.194552,97.043444 45.718621,94.549449 C 48.242619,92.055472 49.504636,88.885406 49.504675,85.03924 C 49.504636,81.133016 48.205059,77.902854 45.605941,75.348743 C 43.006752,72.79469 39.754053,71.517649 35.847836,71.517617 C 32.031711,71.517649 28.869157,72.779666 26.360163,75.303671 C 23.851137,77.827734 22.596632,80.982776 22.596644,84.768808 L 22.596644,84.768808 z"
     id="text2440" />
  <path
     transform="matrix(0.9071254,0.5439053,0,1.1023834,0,0)"
     style="font-size:112.25480652px;font-style:normal;font-weight:normal;fill:#0000ff;fill-opacity:1;stroke:#000000;stroke-width:1px;stroke-linecap:butt;stroke-linejoin:miter;stroke-opacity:1;font-family:Bitstream Vera Sans"
     d="M 461.80352,531.03143 L 471.28598,530.15444 C 472.08987,534.61249 473.6246,537.84639 475.89018,539.85615 C 478.15572,541.86593 481.06074,542.87081 484.60527,542.87081 C 487.63817,542.87081 490.29654,542.17653 492.58041,540.78795 C 494.8642,539.39939 496.73694,537.54493 498.19863,535.22454 C 499.66024,532.90419 500.88437,529.77078 501.87103,525.8243 C 502.85759,521.87787 503.3509,517.85833 503.35095,513.76568 C 503.3509,513.32722 503.33263,512.66948 503.29614,511.79245 C 501.32286,514.93503 498.62795,517.48378 495.21138,519.43871 C 491.79473,521.3937 488.09493,522.37118 484.11197,522.37115 C 477.46143,522.37118 471.83408,519.95945 467.2299,515.13597 C 462.62569,510.31257 460.32359,503.95439 460.32359,496.06143 C 460.32359,487.91278 462.72618,481.35363 467.53136,476.38395 C 472.33652,471.41441 478.35669,468.92961 485.59189,468.92953 C 490.81726,468.92961 495.59502,470.33645 499.9252,473.15005 C 504.2553,475.9638 507.54401,479.9742 509.79135,485.18126 C 512.03858,490.38845 513.16222,497.92508 513.16228,507.79118 C 513.16222,518.05931 512.04772,526.23541 509.81876,532.31951 C 507.58969,538.40365 504.27357,543.03525 499.87039,546.21433 C 495.46713,549.39342 490.30568,550.98297 484.38603,550.98297 C 478.1009,550.98297 472.96686,549.23812 468.98388,545.74843 C 465.00087,542.25875 462.60742,537.35308 461.80352,531.03143 L 461.80352,531.03143 z M 502.1999,495.56812 C 502.19985,489.90428 500.69253,485.40971 497.67792,482.08439 C 494.66322,478.7592 491.0365,477.09658 486.79775,477.0965 C 482.41277,477.09658 478.59421,478.8871 475.34206,482.46807 C 472.08987,486.04918 470.46378,490.68992 470.4638,496.3903 C 470.46378,501.50613 472.00765,505.66269 475.09541,508.86001 C 478.18312,512.05741 481.99255,513.65609 486.52369,513.65605 C 491.09132,513.65609 494.84593,512.05741 497.78754,508.86001 C 500.72907,505.66269 502.19985,501.23207 502.1999,495.56812 L 502.1999,495.56812 z"
     id="text2444" />
  <path
     transform="matrix(0.8063213,0.3079043,5.5294072e-2,1.2613152,0,0)"
     style="font-size:131.96232605px;font-style:normal;font-weight:normal;fill:#0000ff;fill-opacity:1;stroke:#000000;stroke-width:1px;stroke-linecap:butt;stroke-linejoin:miter;stroke-opacity:1;font-family:Bitstream Vera Sans"
     d="M 467.96677,77.241211 L 456.36852,77.241211 L 456.36852,3.3345762 C 453.57631,5.9979496 449.91427,8.6612491 445.3824,11.324483 C 440.85046,13.987848 436.78034,15.985323 433.17201,17.316912 L 433.17201,6.1052696 C 439.65842,3.0554332 445.32867,-0.63882092 450.18278,-4.9775039 C 455.03683,-9.3160225 458.47335,-13.525754 460.49234,-17.606711 L 467.96677,-17.606711 L 467.96677,77.241211 z"
     id="text2448" />
  <path
     transform="matrix(0.8347998,0.3489746,0,1.1978919,0,0)"
     style="font-size:144.32653809px;font-style:normal;font-weight:normal;fill:#0000ff;fill-opacity:1;stroke:#000000;stroke-width:1px;stroke-linecap:butt;stroke-linejoin:miter;stroke-opacity:1;font-family:Bitstream Vera Sans"
     d="M 480.55536,10.006496 C 480.55536,-2.2085776 481.8121,-12.039404 484.32561,-19.486012 C 486.8391,-26.932459 490.57411,-32.675917 495.53065,-36.716402 C 500.48715,-40.756692 506.72391,-42.776885 514.24095,-42.776989 C 519.7847,-42.776885 524.64726,-41.661081 528.82864,-39.429572 C 533.00992,-37.197862 536.46304,-33.979647 539.18802,-29.774916 C 541.91287,-25.570003 544.05051,-20.449047 545.60096,-14.412032 C 547.15127,-8.3748664 547.92647,-0.23536521 547.92654,10.006496 C 547.92647,22.127709 546.68146,31.911554 544.19153,39.35806 C 541.70145,46.804609 537.97819,52.559812 533.02172,56.623686 C 528.06514,60.687568 521.80489,62.719507 514.24095,62.719509 C 504.28089,62.719507 496.45851,59.148932 490.77379,52.007774 C 483.9615,43.410214 480.55536,29.409802 480.55536,10.006496 L 480.55536,10.006496 z M 493.59267,10.006496 C 493.59265,26.966777 495.57761,38.254022 499.54755,43.868264 C 503.51744,49.48254 508.41524,52.28967 514.24095,52.289661 C 520.06659,52.28967 524.96438,49.470795 528.93435,43.833028 C 532.90421,38.195296 534.88917,26.919796 534.88923,10.006496 C 534.88917,-7.0006649 532.90421,-18.299655 528.93435,-23.890508 C 524.96438,-29.481192 520.0196,-32.276576 514.10001,-32.27667 C 508.27429,-32.276576 503.62315,-29.810061 500.14656,-24.877116 C 495.77728,-18.581543 493.59265,-6.9536837 493.59267,10.006496 L 493.59267,10.006496 z"
     id="text2452" />
  <path
     transform="matrix(0.936207,0.5373327,-3.7555334e-2,1.0465851,0,0)"
     style="font-size:101.59835815px;font-style:normal;font-weight:normal;fill:#00ff00;fill-opacity:1;stroke:#000000;stroke-width:1px;stroke-linecap:butt;stroke-linejoin:miter;stroke-opacity:1;font-family:Bitstream Vera Sans"
     d="M 703.36941,322.60739 L 694.43986,322.60739 L 694.43986,265.70636 C 692.29013,267.7569 689.47072,269.80739 685.9816,271.85782 C 682.49245,273.90836 679.35884,275.44622 676.58078,276.47142 L 676.58078,267.83953 C 681.57469,265.49144 685.94024,262.64722 689.67744,259.30685 C 693.41459,255.96661 696.06038,252.72552 697.61481,249.58357 L 703.36941,249.58357 L 703.36941,322.60739 z"
     id="text2464" />
  <path
     transform="matrix(0.9506061,0.4855623,-7.7568847e-2,1.0123389,0,0)"
     style="font-size:106.64632416px;font-style:normal;font-weight:normal;fill:#00ff00;fill-opacity:1;stroke:#000000;stroke-width:1px;stroke-linecap:butt;stroke-linejoin:miter;stroke-opacity:1;font-family:Bitstream Vera Sans"
     d="M 729.88578,344.85477 L 739.259,343.605 C 740.33516,348.91651 742.16641,352.7439 744.75274,355.08719 C 747.33903,357.4305 750.48947,358.60215 754.20406,358.60214 C 758.61291,358.60215 762.33615,357.07466 765.37381,354.01968 C 768.41138,350.96473 769.93018,347.18073 769.93023,342.66768 C 769.93018,338.36298 768.5242,334.81331 765.71228,332.01867 C 762.90028,329.2241 759.32458,327.8268 754.98516,327.82676 C 753.21464,327.8268 751.0102,328.17396 748.37184,328.86823 L 749.41331,320.64063 C 750.03816,320.71011 750.54154,320.74483 750.92344,320.74478 C 754.9157,320.74483 758.50876,319.70336 761.70263,317.62038 C 764.89643,315.53749 766.49334,312.3263 766.49338,307.9868 C 766.49334,304.55001 765.33037,301.70334 763.00447,299.44676 C 760.67849,297.19031 757.67559,296.06206 753.99577,296.06199 C 750.3506,296.06206 747.31299,297.20767 744.88292,299.49883 C 742.45281,301.79013 740.89061,305.22697 740.19632,309.80937 L 730.8231,308.14302 C 731.96871,301.85956 734.57238,296.9907 738.63411,293.53643 C 742.69582,290.0823 747.74694,288.3552 753.78747,288.35513 C 757.95331,288.3552 761.78938,289.24913 765.2957,291.03691 C 768.80193,292.82483 771.48371,295.2636 773.34104,298.35322 C 775.19827,301.44297 776.12691,304.72359 776.12696,308.19509 C 776.12691,311.49313 775.24167,314.49602 773.47122,317.20379 C 771.70068,319.91165 769.07965,322.06402 765.60814,323.66089 C 770.12112,324.7024 773.62739,326.86344 776.12696,330.14403 C 778.62643,333.42469 779.87619,337.5298 779.87625,342.45939 C 779.87619,349.1248 777.4461,354.77476 772.58597,359.40928 C 767.72575,364.04381 761.58109,366.36108 754.15199,366.36108 C 747.45185,366.36108 741.88869,364.36493 737.46246,360.37264 C 733.03622,356.38035 730.51066,351.20773 729.88578,344.85477 L 729.88578,344.85477 z"
     id="text2468" />
  <path
     transform="matrix(0.7604348,0.1628315,4.899307e-2,1.3255279,0,0)"
     style="font-size:86.2727356px;font-style:normal;font-weight:normal;fill:#00ff00;fill-opacity:1;stroke:#000000;stroke-width:0.99999988px;stroke-linecap:butt;stroke-linejoin:miter;stroke-opacity:1;font-family:Bitstream Vera Sans"
     d="M 407.92796,37.082207 L 400.3454,37.082207 L 400.3454,-11.23558 C 398.51995,-9.4943522 396.12582,-7.7531724 393.16303,-6.0120357 C 390.2002,-4.2708128 387.53928,-2.964928 385.18027,-2.0943773 L 385.18027,-9.4241898 C 389.42088,-11.418075 393.1279,-13.83326 396.30137,-16.669752 C 399.47479,-19.506136 401.72147,-22.258323 403.04142,-24.926322 L 407.92796,-24.926322 L 407.92796,37.082207 z"
     id="text2480" />
  <path
     transform="matrix(0.7988168,7.3211892e-2,7.0506717e-2,1.2583134,0,0)"
     style="font-size:94.03884125px;font-style:normal;font-weight:normal;fill:#00ff00;fill-opacity:1;stroke:#000000;stroke-width:1px;stroke-linecap:butt;stroke-linejoin:miter;stroke-opacity:1;font-family:Bitstream Vera Sans"
     d="M 405.35809,54.00539 L 414.03648,53.270711 C 414.67931,57.495126 416.17162,60.671077 418.51342,62.798572 C 420.85519,64.926085 423.67911,65.989838 426.98518,65.989832 C 430.96466,65.989838 434.33194,64.489871 437.08701,61.489926 C 439.84202,58.490003 441.21954,54.510498 441.21958,49.551402 C 441.21954,44.837242 439.89559,41.117936 437.24772,38.393473 C 434.59979,35.669076 431.13303,34.306861 426.84743,34.306824 C 424.1842,34.306861 421.78119,34.91144 419.6384,36.120561 C 417.49557,37.329754 415.81194,38.898597 414.58749,40.827095 L 406.82744,39.816912 L 413.34772,5.2411078 L 446.8215,5.2411078 L 446.8215,13.138901 L 419.95982,13.138901 L 416.33235,31.230358 C 420.37306,28.414134 424.61276,27.006001 429.05147,27.005957 C 434.92886,27.006001 439.88794,29.041671 443.92871,33.112971 C 447.96939,37.184349 449.98976,42.418928 449.9898,48.816723 C 449.98976,54.908449 448.21428,60.173639 444.66338,64.61231 C 440.34711,70.061176 434.45438,72.785606 426.98518,72.785607 C 420.86284,72.785606 415.86551,71.071358 411.99315,67.642858 C 408.12078,64.214366 405.90909,59.668548 405.35809,54.00539 L 405.35809,54.00539 z"
     id="text2484" />
  <path
     transform="matrix(0.88896,0.3055799,-9.1071076e-2,1.0936044,0,0)"
     style="font-size:99.7312851px;font-style:normal;font-weight:normal;fill:#ff0000;fill-opacity:1;stroke:#000000;stroke-width:1px;stroke-linecap:butt;stroke-linejoin:miter;stroke-opacity:1;font-family:Bitstream Vera Sans"
     d="M 963.01036,91.346962 L 954.24492,91.346962 L 954.24492,35.491599 C 952.13469,37.504458 949.36709,39.517262 945.94209,41.530016 C 942.51706,43.54287 939.44104,45.052473 936.71403,46.05883 L 936.71403,37.585566 C 941.61617,35.280635 945.90149,32.488681 949.57001,29.209696 C 953.23849,25.930836 955.83565,22.749307 957.36152,19.665101 L 963.01036,19.665101 L 963.01036,91.346962 z"
     id="text2488" />
  <path
     transform="matrix(0.9266931,0.1905837,-9.6267671e-2,1.0593075,0,0)"
     style="font-size:107.29283142px;font-style:normal;font-weight:normal;fill:#ff0000;fill-opacity:1;stroke:#000000;stroke-width:1px;stroke-linecap:butt;stroke-linejoin:miter;stroke-opacity:1;font-family:Bitstream Vera Sans"
     d="M 1010.9757,149.1146 L 1001.598,149.84805 C 1000.7597,146.14595 999.57226,143.45665 998.03555,141.78013 C 995.48591,139.0909 992.34257,137.74624 988.60552,137.74617 C 985.60185,137.74624 982.96494,138.58447 980.69477,140.26085 C 977.72604,142.42633 975.38599,145.58714 973.67463,149.74327 C 971.96324,153.89953 971.07263,159.81949 971.00279,167.50317 C 973.27297,164.04554 976.04959,161.47847 979.33265,159.80198 C 982.61568,158.12558 986.05589,157.28735 989.6533,157.2873 C 995.93995,157.28735 1001.2924,159.6012 1005.7106,164.22885 C 1010.1286,168.85659 1012.3377,174.83767 1012.3378,182.17211 C 1012.3377,186.99193 1011.2987,191.47119 1009.2206,195.60991 C 1007.1425,199.74866 1004.2873,202.91819 1000.655,205.11853 C 997.02266,207.31887 992.90139,208.41904 988.29119,208.41904 C 980.4328,208.41904 974.02388,205.52891 969.06439,199.74865 C 964.10489,193.9684 961.62514,184.44233 961.62515,171.17041 C 961.62514,156.32689 964.36683,145.53475 969.85023,138.79396 C 974.63508,132.92645 981.07893,129.99267 989.1818,129.99259 C 995.22397,129.99267 1000.1747,131.68658 1004.0341,135.07433 C 1007.8934,138.46223 1010.2072,143.14231 1010.9757,149.1146 L 1010.9757,149.1146 z M 972.46968,182.2245 C 972.46967,185.47265 973.15946,188.58106 974.53905,191.54976 C 975.91861,194.51848 977.84828,196.77994 980.32805,198.33414 C 982.80777,199.88836 985.40976,200.66546 988.13402,200.66546 C 992.11555,200.66546 995.5383,199.05887 998.40228,195.84566 C 1001.2662,192.63248 1002.6981,188.26673 1002.6982,182.74839 C 1002.6981,177.43966 1001.2836,173.25727 998.45467,170.20121 C 995.62562,167.14522 992.06317,165.61721 987.7673,165.61716 C 983.50629,165.61721 979.89145,167.14522 976.92276,170.20121 C 973.95403,173.25727 972.46967,177.26503 972.46968,182.2245 L 972.46968,182.2245 z"
     id="text2492" />
  <path
     transform="matrix(0.855546,0.2811358,0,1.1688443,0,0)"
     style="font-size:71.38352203px;font-style:normal;font-weight:normal;fill:#ff0000;fill-opacity:1;stroke:#000000;stroke-width:1px;stroke-linecap:butt;stroke-linejoin:miter;stroke-opacity:1;font-family:Bitstream Vera Sans"
     d="M 602.82184,271.69131 L 596.5479,271.69131 L 596.5479,231.71236 C 595.03748,233.15308 593.05655,234.59376 590.60508,236.03441 C 588.15358,237.47513 585.9519,238.55564 584.00001,239.27595 L 584.00001,233.21113 C 587.50876,231.56136 590.57602,229.563 593.20179,227.21603 C 595.82754,224.86916 597.68648,222.59196 598.77863,220.38441 L 602.82184,220.38441 L 602.82184,271.69131 z"
     id="text2496" />
  <path
     transform="matrix(0.865575,0.3002563,0,1.1553014,0,0)"
     style="font-size:74.72544098px;font-style:normal;font-weight:normal;fill:#ff0000;fill-opacity:1;stroke:#000000;stroke-width:1px;stroke-linecap:butt;stroke-linejoin:miter;stroke-opacity:1;font-family:Bitstream Vera Sans"
     d="M 623.0736,238.96818 C 620.34923,237.9709 618.33028,236.54791 617.01675,234.6992 C 615.70321,232.85056 615.04645,230.63701 615.04645,228.05856 C 615.04645,224.16665 616.44512,220.89499 619.24246,218.24355 C 622.03979,215.59221 625.76146,214.26652 630.40749,214.26646 C 635.07781,214.26652 638.83597,215.62262 641.68199,218.33477 C 644.52794,221.04702 645.95093,224.34909 645.95097,228.24099 C 645.95093,230.72215 645.30025,232.88096 643.99891,234.71744 C 642.69751,236.55399 640.72113,237.9709 638.06977,238.96818 C 641.35357,240.0385 643.85293,241.76555 645.56786,244.14934 C 647.28271,246.53318 648.14015,249.37917 648.14019,252.68731 C 648.14015,257.26036 646.52256,261.10365 643.28742,264.21721 C 640.0522,267.33077 635.79539,268.88755 630.51696,268.88755 C 625.23848,268.88755 620.98167,267.32469 617.74649,264.19896 C 614.51131,261.07325 612.89372,257.17522 612.89372,252.50487 C 612.89372,249.02646 613.77549,246.11358 615.53903,243.76623 C 617.30256,241.41892 619.81408,239.81957 623.0736,238.96818 L 623.0736,238.96818 z M 621.76007,227.83964 C 621.76006,230.36944 622.57493,232.43704 624.2047,234.04243 C 625.83444,235.64789 627.95068,236.45061 630.55344,236.45058 C 633.08319,236.45061 635.15686,235.65398 636.77448,234.06068 C 638.39204,232.46744 639.20084,230.51539 639.20087,228.20451 C 639.20084,225.79641 638.36772,223.77138 636.70151,222.12942 C 635.03524,220.48755 632.96156,219.66659 630.48047,219.66654 C 627.97501,219.66659 625.89525,220.4693 624.24119,222.07469 C 622.58709,223.68016 621.76006,225.60181 621.76007,227.83964 L 621.76007,227.83964 z M 619.64382,252.54136 C 619.64381,254.41437 620.08774,256.22656 620.9756,257.97793 C 621.86344,259.72931 623.18305,261.08541 624.93444,262.04623 C 626.6858,263.00706 628.57096,263.48747 630.58993,263.48747 C 633.72779,263.48747 636.31837,262.478 638.36167,260.45904 C 640.40491,258.4401 641.42655,255.87385 641.42658,252.76028 C 641.42655,249.59809 640.3745,246.98319 638.27045,244.91557 C 636.16634,242.84799 633.53319,241.8142 630.37101,241.81417 C 627.28175,241.8142 624.72158,242.83583 622.69049,244.87908 C 620.65936,246.92238 619.64381,249.47647 619.64382,252.54136 L 619.64382,252.54136 z"
     id="text2500" />
  <path
     transform="matrix(0.9232398,0.3732972,-5.4041491e-2,1.0612914,0,0)"
     style="font-size:93.92871094px;font-style:normal;font-weight:normal;fill:#ff0000;fill-opacity:1;stroke:#000000;stroke-width:1px;stroke-linecap:butt;stroke-linejoin:miter;stroke-opacity:1;font-family:Bitstream Vera Sans"
     d="M 926.77301,246.27511 L 926.77301,254.20952 L 882.33115,254.20952 C 882.27,252.2221 882.59105,250.31111 883.29429,248.47656 C 884.42559,245.44957 886.2372,242.46844 888.72913,239.53316 C 891.22104,236.5979 894.82133,233.204 899.53002,229.35143 C 906.83759,223.35862 911.77557,218.61173 914.34397,215.11078 C 916.91229,211.60989 918.19647,208.30007 918.19651,205.1813 C 918.19647,201.90975 917.02695,199.15029 914.68794,196.90291 C 912.34887,194.65566 909.29894,193.532 905.53815,193.53194 C 901.56328,193.532 898.38341,194.72445 895.99852,197.1093 C 893.61359,199.49426 892.40585,202.79644 892.37529,207.01584 L 883.89052,206.14444 C 884.47145,199.81531 886.65762,194.99199 890.44902,191.67446 C 894.2404,188.35706 899.33125,186.69832 905.72161,186.69826 C 912.17306,186.69832 917.2792,188.487 921.04006,192.0643 C 924.80083,195.64172 926.68124,200.0752 926.68128,205.36475 C 926.68124,208.05547 926.13087,210.70027 925.03019,213.29916 C 923.92942,215.89814 922.10252,218.63467 919.54949,221.50875 C 916.99638,224.3829 912.754,228.32717 906.82233,233.34157 C 901.86904,237.49989 898.68916,240.3205 897.2827,241.80341 C 895.8762,243.28634 894.71432,244.77691 893.79706,246.27511 L 926.77301,246.27511 z"
     id="text2504" />
  <path
     transform="matrix(0.9721863,0.1752931,-1.018028e-2,1.0267738,0,0)"
     style="font-size:99.33553314px;font-style:normal;font-weight:normal;fill:#ff0000;fill-opacity:1;stroke:#000000;stroke-width:1px;stroke-linecap:butt;stroke-linejoin:miter;stroke-opacity:1;font-family:Bitstream Vera Sans"
     d="M 881.78291,422.83034 C 881.7829,414.42308 882.64789,407.65682 884.37785,402.53155 C 886.10781,397.40639 888.6785,393.45334 892.08994,390.6724 C 895.50135,387.89159 899.79392,386.50116 904.96767,386.50108 C 908.78326,386.50116 912.13001,387.26913 915.00793,388.80501 C 917.88577,390.34103 920.26245,392.55603 922.13797,395.45001 C 924.0134,398.34413 925.48467,401.86872 926.5518,406.02381 C 927.61883,410.17901 928.15237,415.78118 928.15242,422.83034 C 928.15237,431.173 927.29548,437.90692 925.58173,443.03212 C 923.86789,448.15735 921.30528,452.11848 917.8939,454.91552 C 914.48243,457.71257 910.1737,459.11109 904.96767,459.11109 C 898.11246,459.11109 892.72856,456.65357 888.81594,451.73853 C 884.12725,445.82109 881.7829,436.18504 881.78291,422.83034 L 881.78291,422.83034 z M 890.75609,422.83034 C 890.75608,434.50358 892.12226,442.27225 894.85465,446.13636 C 897.587,450.00049 900.95801,451.93255 904.96767,451.93255 C 908.97727,451.93255 912.34827,449.99241 915.08068,446.1121 C 917.81302,442.23183 919.1792,434.47125 919.17924,422.83034 C 919.1792,411.12483 917.81302,403.34808 915.08068,399.50007 C 912.34827,395.65217 908.94494,393.7282 904.87066,393.72813 C 900.861,393.7282 897.65976,395.42582 895.26693,398.82102 C 892.25969,403.15407 890.75608,411.15717 890.75609,422.83034 L 890.75609,422.83034 z"
     id="text2508" />
  <path
     transform="matrix(0.8780752,0.2364683,-4.470732e-2,1.1268148,0,0)"
     style="font-size:87.98712921px;font-style:normal;font-weight:normal;fill:#ff0000;fill-opacity:1;stroke:#000000;stroke-width:1px;stroke-linecap:butt;stroke-linejoin:miter;stroke-opacity:1;font-family:Bitstream Vera Sans"
     d="M 776.64409,133.95882 L 776.64409,141.39133 L 735.01347,141.39133 C 734.95618,139.52962 735.25692,137.73952 735.91568,136.02102 C 736.97541,133.1855 738.67243,130.39295 741.00673,127.64334 C 743.34101,124.89376 746.71356,121.71454 751.12439,118.10567 C 757.96972,112.49194 762.59534,108.04533 765.00127,104.76583 C 767.40713,101.4864 768.61008,98.385942 768.61011,95.464451 C 768.61008,92.399844 767.51454,89.814939 765.32348,87.709726 C 763.13237,85.604621 760.27537,84.552042 756.75247,84.551985 C 753.02904,84.552042 750.05031,85.669065 747.81628,87.903057 C 745.58222,90.137157 744.45087,93.230451 744.42225,97.18295 L 736.47419,96.366663 C 737.01838,90.437894 739.06625,85.919679 742.61782,82.812005 C 746.16937,79.704449 750.9382,78.150641 756.92432,78.150578 C 762.96768,78.150641 767.75083,79.826176 771.27379,83.177186 C 774.79667,86.528313 776.55813,90.681348 776.55817,95.636301 C 776.55813,98.156809 776.04258,100.63431 775.01152,103.06881 C 773.98038,105.50338 772.26904,108.06681 769.87751,110.75909 C 767.48589,113.45143 763.51187,117.1462 757.95542,121.84341 C 753.31545,125.73868 750.33673,128.38087 749.01923,129.76998 C 747.7017,131.15911 746.61332,132.55539 745.75408,133.95882 L 776.64409,133.95882 z"
     id="text2512" />
  <path
     transform="matrix(0.9047777,0.2432286,-5.7986412e-2,1.0896556,0,0)"
     style="font-size:93.88195801px;font-style:normal;font-weight:normal;fill:#ff0000;fill-opacity:1;stroke:#000000;stroke-width:1px;stroke-linecap:butt;stroke-linejoin:miter;stroke-opacity:1;font-family:Bitstream Vera Sans"
     d="M 795.76742,145.99324 L 787.51608,145.99324 L 787.51608,93.413843 C 785.52962,95.308647 782.92434,97.203398 779.70022,99.098102 C 776.47607,100.9929 773.58046,102.41396 771.01339,103.3613 L 771.01339,95.384997 C 775.62802,93.215252 779.662,90.587049 783.11536,87.50038 C 786.56868,84.413828 789.01352,81.418898 790.44989,78.515583 L 795.76742,78.515583 L 795.76742,145.99324 z"
     id="text2516" />
  <path
     transform="matrix(0.7884462,0.5393162,0.1853802,1.3951219,0,0)"
     style="font-size:72.88257599px;font-style:normal;font-weight:normal;fill:#0000ff;fill-opacity:1;stroke:#000000;stroke-width:1px;stroke-linecap:butt;stroke-linejoin:miter;stroke-opacity:1;font-family:Bitstream Vera Sans"
     d="M 43.870608,443.94376 L 43.870608,450.10034 L 9.3866157,450.10034 C 9.339164,448.55823 9.5882741,447.07543 10.133947,445.65194 C 11.01176,443.30319 12.417453,440.99003 14.351029,438.71244 C 16.284591,436.43487 19.078183,433.80142 22.731814,430.81208 C 28.402019,426.16205 32.23357,422.47877 34.226478,419.76226 C 36.219332,417.0458 37.215772,414.47759 37.215802,412.05763 C 37.215772,409.51912 36.3083,407.37796 34.493382,405.63414 C 32.67841,403.89041 30.311863,403.01853 27.393737,403.01848 C 24.309496,403.01853 21.842119,403.9438 19.9916,405.79428 C 18.141055,407.64486 17.203926,410.20714 17.180212,413.48112 L 10.59658,412.80496 C 11.047348,407.89397 12.743669,404.15139 15.685549,401.5772 C 18.627413,399.00311 22.577587,397.71604 27.536085,397.71599 C 32.541992,397.71604 36.504029,399.10394 39.422209,401.87969 C 42.340323,404.65554 43.799397,408.09563 43.799434,412.19998 C 43.799397,414.2878 43.372351,416.33999 42.518295,418.35656 C 41.664167,420.3732 40.246612,422.49657 38.265625,424.72667 C 36.284575,426.95683 32.992763,430.01732 28.390178,433.90817 C 24.546744,437.13475 22.079367,439.32336 20.988041,440.47401 C 19.896688,441.62467 18.995147,442.78125 18.283415,443.94376 L 43.870608,443.94376 z"
     id="text2520" />
  <path
     transform="matrix(0.7527737,0.175979,0.1188167,1.3561967,0,0)"
     style="font-size:108.67613983px;font-style:normal;font-weight:normal;fill:#0000ff;fill-opacity:1;stroke:#000000;stroke-width:1px;stroke-linecap:butt;stroke-linejoin:miter;stroke-opacity:1;font-family:Bitstream Vera Sans"
     d="M 259.03052,100.17504 L 259.03052,109.3552 L 207.611,109.3552 C 207.54024,107.05574 207.91169,104.84472 208.72535,102.72214 C 210.03427,99.219888 212.13032,95.770698 215.0135,92.374555 C 217.89666,88.978446 222.06222,85.051675 227.51019,80.594231 C 235.96511,73.660503 241.67838,68.16833 244.65004,64.117697 C 247.62161,60.067155 249.10741,56.237669 249.10746,52.629228 C 249.10741,48.84402 247.75427,45.651307 245.04802,43.051082 C 242.34169,40.45099 238.8129,39.15091 234.46165,39.15084 C 229.8627,39.15091 226.18356,40.530586 223.42423,43.289873 C 220.66486,46.049291 219.26749,49.869933 219.23213,54.751809 L 209.41519,53.743583 C 210.08734,46.420742 212.61674,40.840129 217.00342,37.001727 C 221.39007,33.163469 227.28023,31.244304 234.67391,31.244226 C 242.13828,31.244304 248.04612,33.313819 252.39746,37.452775 C 256.74869,41.591876 258.92434,46.721441 258.92439,52.841486 C 258.92434,55.954658 258.28756,59.014709 257.01407,62.021649 C 255.74047,65.028683 253.62673,68.194862 250.67286,71.520198 C 247.71889,74.845609 242.81043,79.409153 235.94745,85.210844 C 230.21646,90.022047 226.53732,93.285512 224.91003,95.001249 C 223.2827,96.717014 221.9384,98.441609 220.87713,100.17504 L 259.03052,100.17504 z"
     id="text2528" />
  <path
     transform="matrix(0.7737083,0.1723714,7.6890387e-2,1.3096069,0,0)"
     style="font-size:116.46339417px;font-style:normal;font-weight:normal;fill:#0000ff;fill-opacity:1;stroke:#000000;stroke-width:1px;stroke-linecap:butt;stroke-linejoin:miter;stroke-opacity:1;font-family:Bitstream Vera Sans"
     d="M 294.9051,115.29713 L 294.9051,95.336848 L 258.73776,95.336848 L 258.73776,85.953811 L 296.78171,31.930264 L 305.14114,31.930264 L 305.14114,85.953811 L 316.40078,85.953811 L 316.40078,95.336848 L 305.14114,95.336848 L 305.14114,115.29713 L 294.9051,115.29713 z M 294.9051,85.953811 L 294.9051,48.364795 L 268.8032,85.953811 L 294.9051,85.953811 z"
     id="text2532" />
  <path
     transform="matrix(0.8739834,0.1661058,-5.902255e-2,1.1329689,0,0)"
     style="font-size:125.41458893px;font-style:normal;font-weight:normal;fill:#00ff00;fill-opacity:1;stroke:#000000;stroke-width:1px;stroke-linecap:butt;stroke-linejoin:miter;stroke-opacity:1;font-family:Bitstream Vera Sans"
     d="M 784.5098,34.626653 L 784.5098,45.220757 L 725.17057,45.220757 C 725.08892,42.56713 725.51758,40.015566 726.45656,37.566057 C 727.96708,33.524388 730.38596,29.543949 733.71322,25.624727 C 737.04044,21.705545 741.84759,17.173967 748.13467,12.029982 C 757.89182,4.0283107 764.48506,-2.3097738 767.91441,-6.9842909 C 771.34367,-11.658704 773.05832,-16.078012 773.05837,-20.24223 C 773.05832,-24.610441 771.49676,-28.294899 768.37369,-31.295615 C 765.25053,-34.296177 761.17824,-35.796497 756.15679,-35.796578 C 750.84951,-35.796497 746.6037,-34.204321 743.41937,-31.020046 C 740.235,-27.835618 738.62241,-23.426516 738.5816,-17.792726 L 727.25265,-18.95624 C 728.02832,-27.406955 730.94731,-33.847102 736.00962,-38.276701 C 741.07191,-42.706132 747.86928,-44.920889 756.40174,-44.920979 C 765.01579,-44.920889 771.83357,-42.532625 776.8551,-37.756181 C 781.87652,-32.979571 784.38726,-27.059943 784.38732,-19.997279 C 784.38726,-16.404612 783.65241,-12.873248 782.18277,-9.4031758 C 780.71301,-5.9329944 778.27371,-2.279155 774.86488,1.5583533 C 771.45593,5.3959489 765.79146,10.662377 757.87145,17.357652 C 751.25776,22.909883 747.01195,26.675991 745.13403,28.655988 C 743.25605,30.636018 741.7047,32.626238 740.47997,34.626653 L 784.5098,34.626653 z"
     id="text2544" />
  <path
     transform="matrix(0.8730455,0.1805042,-0.1634541,1.1116212,0,0)"
     style="font-size:133.7678833px;font-style:normal;font-weight:normal;fill:#00ff00;fill-opacity:1;stroke:#000000;stroke-width:1px;stroke-linecap:butt;stroke-linejoin:miter;stroke-opacity:1;font-family:Bitstream Vera Sans"
     d="M 855.94701,-37.454586 L 844.25538,-36.540157 C 843.21027,-41.15577 841.72976,-44.508672 839.81387,-46.598875 C 836.63509,-49.951696 832.71612,-51.628147 828.05693,-51.628234 C 824.31209,-51.628147 821.0245,-50.583087 818.19416,-48.493049 C 814.49287,-45.793226 811.57541,-41.852477 809.44177,-36.67079 C 807.30808,-31.48896 806.19771,-24.10822 806.11063,-14.528547 C 808.94099,-18.839373 812.40275,-22.039871 816.49593,-24.130051 C 820.58906,-26.220113 824.87816,-27.265173 829.36325,-27.265236 C 837.20117,-27.265173 843.87432,-24.380371 849.38272,-18.610819 C 854.891,-12.841161 857.64517,-5.3842183 857.64523,3.7600304 C 857.64517,9.7691596 856.34973,15.353702 853.75891,20.513674 C 851.16797,25.673675 847.60823,29.62531 843.07969,32.368591 C 838.55104,35.111878 833.41282,36.48352 827.66503,36.483521 C 817.86755,36.48352 809.87719,32.880238 803.69393,25.673666 C 797.51064,18.467111 794.419,6.5904338 794.41901,-9.956403 C 794.419,-28.462639 797.83722,-41.917793 804.67367,-50.321907 C 810.63921,-57.637245 818.67312,-61.294957 828.77541,-61.295053 C 836.30851,-61.294957 842.4809,-59.183064 847.29259,-54.959368 C 852.10417,-50.735491 854.98897,-44.90057 855.94701,-37.454586 L 855.94701,-37.454586 z M 807.93949,3.8253467 C 807.93947,7.8749874 808.79947,11.75042 810.51949,15.451657 C 812.23946,19.152932 814.64528,21.972419 817.73694,23.910124 C 820.82855,25.847852 824.0726,26.81671 827.46908,26.816702 C 832.43308,26.81671 836.70041,24.813677 840.27108,20.807598 C 843.84166,16.801546 845.62697,11.358523 845.62703,4.4785102 C 845.62697,-2.1401762 843.86343,-7.3545928 840.3364,-11.164755 C 836.80927,-14.974826 832.36776,-16.879884 827.01187,-16.879936 C 821.69944,-16.879884 817.19261,-14.974826 813.49138,-11.164755 C 809.7901,-7.3545928 807.93947,-2.3578971 807.93949,3.8253467 L 807.93949,3.8253467 z"
     id="text2548" />
  <path
     transform="matrix(0.8881952,0.4484782,0,1.1258787,0,0)"
     style="font-size:85.87306213px;font-style:normal;font-weight:normal;fill:#00ff00;fill-opacity:1;stroke:#000000;stroke-width:1px;stroke-linecap:butt;stroke-linejoin:miter;stroke-opacity:1;font-family:Bitstream Vera Sans"
     d="M 546.04443,338.24461 L 546.04443,345.49854 L 505.41406,345.49854 C 505.35816,343.68156 505.65167,341.93447 506.2946,340.25726 C 507.32887,337.48987 508.98511,334.76441 511.26333,332.08087 C 513.54153,329.39735 516.83304,326.29452 521.13789,322.77236 C 527.81875,317.29351 532.33323,312.95374 534.68135,309.75303 C 537.02941,306.5524 538.20345,303.52644 538.20349,300.67514 C 538.20345,297.68417 537.13423,295.16137 534.99583,293.10674 C 532.85735,291.05222 530.069,290.02493 526.63075,290.02487 C 522.99678,290.02493 520.08962,291.11511 517.90927,293.29543 C 515.72888,295.47585 514.62472,298.49482 514.59678,302.35235 L 506.83969,301.55568 C 507.3708,295.76936 509.36947,291.3597 512.83571,288.3267 C 516.30193,285.29381 520.95618,283.77733 526.79847,283.77727 C 532.69662,283.77733 537.36485,285.41261 540.80316,288.68311 C 544.24139,291.95372 545.96053,296.00696 545.96057,300.84287 C 545.96053,303.30281 545.45737,305.72079 544.45109,308.09679 C 543.44472,310.47287 541.7745,312.9747 539.44043,315.6023 C 537.10628,318.22995 533.22774,321.83595 527.80479,326.42029 C 523.27631,330.22198 520.36915,332.80068 519.08331,334.15641 C 517.79744,335.51217 516.73521,336.8749 515.89662,338.24461 L 546.04443,338.24461 z"
     id="text2552" />
  <path
     transform="matrix(0.877712,0.4091404,0,1.1393258,0,0)"
     style="font-size:87.20622253px;font-style:normal;font-weight:normal;fill:#00ff00;fill-opacity:1;stroke:#000000;stroke-width:0.99999994px;stroke-linecap:butt;stroke-linejoin:miter;stroke-opacity:1;font-family:Bitstream Vera Sans"
     d="M 562.22754,303.81587 L 562.22754,296.44933 L 602.63706,296.44933 L 602.63706,302.41069 C 598.66278,306.64047 594.72403,312.26118 590.82079,319.27283 C 586.91749,326.28456 583.90133,333.49496 581.77229,340.90406 C 580.23935,346.12736 579.25998,351.84743 578.83419,358.06427 L 570.95668,358.06427 C 571.04183,353.15325 572.007,347.22028 573.8522,340.26534 C 575.69736,333.31045 578.34449,326.60392 581.79359,320.14574 C 585.24263,313.68765 588.91171,308.24436 592.80082,303.81587 L 562.22754,303.81587 z"
     id="text2556" />
  <path
     style="fill:none;fill-rule:evenodd;stroke:#000000;stroke-width:1px;stroke-linecap:butt;stroke-linejoin:miter;stroke-opacity:1"
     d="M 284.31346,23.510656 L 763.3427,75.513972 L 721.30423,759.43296"
     id="path3330"
     sodipodi:nodetypes="ccc" />
  <path
     style="fill:none;fill-rule:evenodd;stroke:#000000;stroke-width:1px;stroke-linecap:butt;stroke-linejoin:miter;stroke-opacity:1"
     d="M 700.37303,24.093931 L 199.67166,74.437343 L 250.50662,757.24666"
     id="path3332"
     sodipodi:nodetypes="ccc" />
  <path
     style="fill:none;fill-rule:evenodd;stroke:#000000;stroke-width:1px;stroke-linecap:butt;stroke-linejoin:miter;stroke-opacity:1"
     d="M 687.4313,309.20339 L 488.53001,368.18926"
     id="path3340"
     sodipodi:nodetypes="cc" />
  <path
     style="fill:none;fill-rule:evenodd;stroke:#000000;stroke-width:1px;stroke-linecap:butt;stroke-linejoin:miter;stroke-opacity:1"
     d="M 299.37178,308.1506 L 740.43793,448.4915"
     id="path3342"
     sodipodi:nodetypes="cc" />
  <path
     style="fill:none;fill-rule:evenodd;stroke:#000000;stroke-width:1px;stroke-linecap:butt;stroke-linejoin:miter;stroke-opacity:1"
     d="M 487.44317,45.518994 L 490.43649,644.93098"
     id="path3346"
     sodipodi:nodetypes="cc" />
  <path
     transform="matrix(0.8292814,0.2302256,0,1.2058633,0,0)"
     style="font-size:106.3141098px;font-style:normal;font-weight:normal;fill:#00ff00;fill-opacity:1;stroke:#000000;stroke-width:1px;stroke-linecap:butt;stroke-linejoin:miter;stroke-opacity:1;font-family:Bitstream Vera Sans"
     d="M 590.96724,9.784996 L 581.62323,9.784996 L 581.62323,-49.757135 C 579.37372,-47.611415 576.42343,-45.465755 572.77237,-43.320148 C 569.12127,-41.174434 565.84222,-39.565189 562.9352,-38.492407 L 562.9352,-47.524954 C 568.16091,-49.982024 572.72909,-52.958262 576.63976,-56.453678 C 580.55037,-59.948961 583.31896,-63.340489 584.94555,-66.62827 L 590.96724,-66.62827 L 590.96724,9.784996 z"
     id="text2416" />
  <path
     style="fill:none;fill-rule:evenodd;stroke:#000000;stroke-width:1px;stroke-linecap:butt;stroke-linejoin:miter;stroke-opacity:1"
     d="M 9.1193623,44.992087 L 471.42947,117.56707 L 967.32087,45.81012"
     id="path3334"
     sodipodi:nodetypes="ccc" />
  <path
     transform="matrix(0.8087166,0.1856655,9.994241e-2,1.2594719,0,0)"
     style="font-size:84.64025116px;font-style:normal;font-weight:normal;fill:#00ff00;fill-opacity:1;stroke:#000000;stroke-width:1px;stroke-linecap:butt;stroke-linejoin:miter;stroke-opacity:1;font-family:Bitstream Vera Sans"
     d="M 401.93533,209.85191 L 409.74636,209.19066 C 410.32495,212.99287 411.66811,215.8514 413.77587,217.76627 C 415.88359,219.68115 418.42528,220.63858 421.40093,220.63858 C 424.98268,220.63858 428.01342,219.28853 430.49314,216.58841 C 432.9728,213.88831 434.21265,210.30653 434.21269,205.84307 C 434.21265,201.60006 433.02102,198.25247 430.63779,195.8003 C 428.2545,193.34819 425.13422,192.12212 421.27695,192.12209 C 418.87989,192.12212 416.71704,192.66628 414.78841,193.75455 C 412.85974,194.8429 411.34438,196.25494 410.2423,197.9907 L 403.25783,197.08148 L 409.12644,165.96131 L 439.25473,165.96131 L 439.25473,173.06977 L 415.07771,173.06977 L 411.81278,189.3531 C 415.44965,186.81834 419.26562,185.55094 423.2607,185.5509 C 428.55069,185.55094 433.01413,187.38315 436.65105,191.04755 C 440.2879,194.71202 442.10634,199.42344 442.10638,205.18182 C 442.10634,210.66471 440.50831,215.40368 437.31231,219.39873 C 433.42742,224.30302 428.12363,226.75516 421.40093,226.75516 C 415.89048,226.75516 411.39259,225.21224 407.90726,222.1264 C 404.4219,219.04056 402.43126,214.94907 401.93533,209.85191 L 401.93533,209.85191 z"
     id="text2540" />
  <path
     transform="matrix(0.809429,0.2461728,5.6761692e-2,1.2527018,0,0)"
     style="font-size:80.81253815px;font-style:normal;font-weight:normal;fill:#00ff00;fill-opacity:1;stroke:#000000;stroke-width:1px;stroke-linecap:butt;stroke-linejoin:miter;stroke-opacity:1;font-family:Bitstream Vera Sans"
     d="M 403.59145,195.36255 L 403.59145,202.189 L 365.35544,202.189 C 365.30282,200.4791 365.57904,198.83496 366.18408,197.25659 C 367.15741,194.65229 368.71605,192.08744 370.86,189.56204 C 373.00395,187.03666 376.10149,184.11668 380.15266,180.80208 C 386.43981,175.6461 390.68825,171.56207 392.89799,168.54999 C 395.10768,165.53797 396.21254,162.69033 396.21257,160.00706 C 396.21254,157.19235 395.20633,154.81822 393.19394,152.88467 C 391.18149,150.95121 388.55745,149.98446 385.32182,149.98441 C 381.902,149.98446 379.16616,151.0104 377.1143,153.06223 C 375.0624,155.11416 374.02331,157.95522 373.99701,161.58543 L 366.69705,160.8357 C 367.19687,155.39038 369.07776,151.24058 372.33973,148.38631 C 375.60168,145.53215 379.98165,144.10504 385.47966,144.10498 C 391.03023,144.10504 395.42335,145.64395 398.65904,148.72172 C 401.89466,151.79959 403.51249,155.61398 403.51253,160.1649 C 403.51249,162.47988 403.03898,164.75536 402.092,166.99135 C 401.14494,169.2274 399.57315,171.5818 397.37662,174.05455 C 395.18002,176.52736 391.53004,179.92085 386.42668,184.23504 C 382.16506,187.81269 379.42922,190.23943 378.21915,191.51527 C 377.00906,192.79113 376.00942,194.07355 375.22025,195.36255 L 403.59145,195.36255 z"
     id="text2536" />
  <path
     transform="matrix(0.839149,0.2168048,0,1.1916834,0,0)"
     style="font-size:94.30207825px;font-style:normal;font-weight:normal;fill:#00ff00;fill-opacity:1;stroke:#000000;stroke-width:0.99999988px;stroke-linecap:butt;stroke-linejoin:miter;stroke-opacity:1;font-family:Bitstream Vera Sans"
     d="M 572.66747,237.68532 L 564.3792,237.68532 L 564.3792,184.87063 C 562.38386,186.77391 559.76691,188.67714 556.52837,190.58032 C 553.28979,192.4836 550.38123,193.91102 547.80267,194.8626 L 547.80267,186.8506 C 552.43794,184.67115 556.48998,182.03118 559.95879,178.9307 C 563.42756,175.83034 565.88334,172.82201 567.32614,169.9057 L 572.66747,169.9057 L 572.66747,237.68532 z"
     id="text2472" />
  <path
     style="fill:none;fill-rule:evenodd;stroke:#000000;stroke-width:1px;stroke-linecap:butt;stroke-linejoin:miter;stroke-opacity:1"
     d="M 488.51175,368.46067 L 226.16765,446.77471"
     id="path3344"
     sodipodi:nodetypes="cc" />
  <path
     transform="matrix(0.8597292,0.2703761,0,1.163157,0,0)"
     style="font-size:99.97985077px;font-style:normal;font-weight:normal;fill:#00ff00;fill-opacity:1;stroke:#000000;stroke-width:1px;stroke-linecap:butt;stroke-linejoin:miter;stroke-opacity:1;font-family:Bitstream Vera Sans"
     d="M 608.96242,221.01785 L 608.96242,203.88263 L 577.91399,203.88263 L 577.91399,195.82762 L 610.57342,149.45024 L 617.74971,149.45024 L 617.74971,195.82762 L 627.41573,195.82762 L 627.41573,203.88263 L 617.74971,203.88263 L 617.74971,221.01785 L 608.96242,221.01785 z M 608.96242,195.82762 L 608.96242,163.55873 L 586.55483,195.82762 L 608.96242,195.82762 z"
     id="text2476" />
  <path
     transform="matrix(0.8930436,0.2469527,-5.8761201e-2,1.1035169,0,0)"
     style="font-size:116.84249115px;font-style:normal;font-weight:normal;fill:#00ff00;fill-opacity:1;stroke:#000000;stroke-width:1px;stroke-linecap:butt;stroke-linejoin:miter;stroke-opacity:1;font-family:Bitstream Vera Sans"
     d="M 775.44169,240.13151 L 785.71105,238.76226 C 786.89011,244.58158 788.89643,248.7749 791.73003,251.34223 C 794.56359,253.90957 798.01524,255.19324 802.08497,255.19324 C 806.91534,255.19324 810.99455,253.51972 814.32263,250.17266 C 817.65061,246.82563 819.31463,242.67985 819.31468,237.73533 C 819.31463,233.01906 817.77422,229.13002 814.69346,226.06819 C 811.61261,223.00644 807.69505,221.47555 802.94075,221.47551 C 801.00095,221.47555 798.58575,221.85589 795.69515,222.61655 L 796.83619,213.60233 C 797.52079,213.67845 798.07229,213.71648 798.4907,213.71643 C 802.86465,213.71648 806.80123,212.57544 810.30046,210.29331 C 813.79961,208.01129 815.5492,204.49309 815.54924,199.73869 C 815.5492,195.97333 814.27504,192.85449 811.72676,190.38217 C 809.1784,187.90999 805.8884,186.67386 801.85676,186.67379 C 797.8631,186.67386 794.53507,187.92901 791.87266,190.43922 C 789.21022,192.94958 787.49866,196.715 786.73798,201.73551 L 776.46863,199.90985 C 777.72376,193.02565 780.57636,187.69129 785.02642,183.90677 C 789.47646,180.1224 795.0105,178.23018 801.62856,178.23009 C 806.19268,178.23018 810.39551,179.20957 814.23705,181.16827 C 818.0785,183.12713 821.01668,185.79907 823.05158,189.18408 C 825.08638,192.56923 826.10381,196.1635 826.10386,199.9669 C 826.10381,203.58025 825.13392,206.87025 823.19421,209.8369 C 821.25439,212.80365 818.38278,215.1618 814.57936,216.91135 C 819.52382,218.05243 823.36531,220.42009 826.10386,224.01432 C 828.8423,227.60863 830.21155,232.10623 830.21161,237.50712 C 830.21155,244.80979 827.54912,250.99993 822.22433,256.07754 C 816.89943,261.15517 810.1673,263.69398 802.02792,263.69398 C 794.68721,263.69398 788.59216,261.50699 783.74275,257.133 C 778.89333,252.75903 776.12631,247.09187 775.44169,240.13151 L 775.44169,240.13151 z"
     id="text2424" />
  <path
     style="fill:none;fill-rule:evenodd;stroke:#000000;stroke-width:1px;stroke-linecap:butt;stroke-linejoin:miter;stroke-opacity:1"
     d="M 47.533559,367.74177 L 475.43424,557.03578 L 931.62118,369.7446"
     id="path3336"
     sodipodi:nodetypes="ccc" />
  <path
     style="fill:none;fill-rule:evenodd;stroke:#000000;stroke-width:1px;stroke-linecap:butt;stroke-linejoin:miter;stroke-opacity:1"
     d="M 471.50747,117.55063 L 478.66971,911.35834"
     id="path3338"
     sodipodi:nodetypes="cc" />
  <path
     transform="matrix(0.8506196,0.3639115,3.1787833e-2,1.1892131,0,0)"
     style="font-size:120.2696228px;font-style:normal;font-weight:normal;fill:#0000ff;fill-opacity:1;stroke:#000000;stroke-width:1px;stroke-linecap:butt;stroke-linejoin:miter;stroke-opacity:1;font-family:Bitstream Vera Sans"
     d="M 460.99569,335.21053 L 460.99569,345.37003 L 404.09077,345.37003 C 404.01247,342.82526 404.42355,340.37837 405.32401,338.02935 C 406.77256,334.15349 409.09221,330.33634 412.28297,326.5779 C 415.4737,322.81949 420.08364,318.47382 426.1128,313.54086 C 435.46968,305.86744 441.79244,299.78937 445.0811,295.30662 C 448.36968,290.82397 450.01399,286.58596 450.01404,282.59257 C 450.01399,278.40356 448.51649,274.87025 445.52154,271.99264 C 442.52651,269.11517 438.62127,267.6764 433.80583,267.67632 C 428.71626,267.6764 424.64464,269.20326 421.59094,272.2569 C 418.5372,275.31069 416.99077,279.53892 416.95164,284.94159 L 406.08744,283.8258 C 406.83129,275.72177 409.63053,269.54582 414.48517,265.29794 C 419.33978,261.05022 425.8583,258.92632 434.04073,258.92623 C 442.30139,258.92632 448.83948,261.21661 453.65501,265.79711 C 458.47044,270.37776 460.87818,276.05455 460.87824,282.82747 C 460.87818,286.27276 460.17347,289.65925 458.76412,292.98697 C 457.35466,296.31479 455.01543,299.81873 451.74644,303.49881 C 448.47734,307.17898 443.04525,312.22936 435.45014,318.64997 C 429.10777,323.97443 425.03614,327.58603 423.23525,329.4848 C 421.43432,331.38361 419.94661,333.29218 418.77212,335.21053 L 460.99569,335.21053 z"
     id="text2401" />
  <path
     transform="matrix(0.8471638,0.3211537,0,1.1804093,0,0)"
     style="font-size:125.06279755px;font-style:normal;font-weight:normal;fill:#0000ff;fill-opacity:1;stroke:#000000;stroke-width:1px;stroke-linecap:butt;stroke-linejoin:miter;stroke-opacity:1;font-family:Bitstream Vera Sans"
     d="M 485.67372,340.46967 L 496.66557,339.00409 C 497.92758,345.23282 500.07505,349.72116 503.10801,352.4691 C 506.14092,355.21707 509.8354,356.59105 514.19146,356.59105 C 519.36166,356.59105 523.72786,354.79979 527.29007,351.21725 C 530.8522,347.63474 532.63328,343.1973 532.63333,337.90491 C 532.63328,332.85683 530.98451,328.69418 527.687,325.41695 C 524.3894,322.13979 520.19622,320.50119 515.10744,320.50115 C 513.03117,320.50119 510.44606,320.9083 507.35208,321.72246 L 508.5734,312.07406 C 509.30616,312.15554 509.89646,312.19625 510.34431,312.1962 C 515.02599,312.19625 519.23952,310.97493 522.98493,308.53225 C 526.73026,306.08967 528.60294,302.32395 528.60299,297.23507 C 528.60294,293.2048 527.23914,289.86654 524.51158,287.22028 C 521.78393,284.57417 518.26247,283.25108 513.94719,283.251 C 509.67256,283.25108 506.11039,284.59453 503.26067,287.28134 C 500.41092,289.96831 498.57894,293.99865 497.76475,299.37237 L 486.7729,297.41827 C 488.11634,290.04973 491.16963,284.34008 495.93278,280.28931 C 500.69589,276.23869 506.61927,274.21335 513.70293,274.21326 C 518.58816,274.21335 523.08667,275.26164 527.19848,277.35815 C 531.31019,279.45482 534.45508,282.31474 536.63314,285.93789 C 538.8111,289.56121 539.90011,293.40835 539.90017,297.47933 C 539.90011,301.3469 538.86199,304.86836 536.78581,308.04372 C 534.70952,311.2192 531.63587,313.74325 527.56487,315.61588 C 532.85719,316.83725 536.96895,319.37147 539.90017,323.21858 C 542.83126,327.06576 544.29684,331.87978 544.2969,337.66064 C 544.29684,345.47709 541.44711,352.10272 535.74769,357.53757 C 530.04816,362.97243 522.8424,365.68985 514.13039,365.68985 C 506.27323,365.68985 499.74937,363.349 494.5588,358.66728 C 489.36819,353.98558 486.4065,347.91972 485.67372,340.46967 L 485.67372,340.46967 z"
     id="text2405" />
  <path
     transform="matrix(0.8002352,0.3876023,9.1805652e-2,1.2940997,0,0)"
     style="font-size:99.30734253px;font-style:normal;font-weight:normal;fill:#0000ff;fill-opacity:1;stroke:#000000;stroke-width:1px;stroke-linecap:butt;stroke-linejoin:miter;stroke-opacity:1;font-family:Bitstream Vera Sans"
     d="M 224.32013,251.21183 L 224.32013,242.82307 L 270.33706,242.82307 L 270.33706,249.61166 C 265.81129,254.42838 261.32597,260.82904 256.88111,268.81367 C 252.43616,276.79837 249.00147,285.00932 246.577,293.44654 C 244.83134,299.39465 243.71607,305.90846 243.2312,312.98798 L 234.26056,312.98798 C 234.35753,307.39548 235.45663,300.63922 237.55788,292.71919 C 239.65909,284.7992 242.67354,277.16205 246.60124,269.80771 C 250.5289,262.45346 254.70711,256.25483 259.13589,251.21183 L 224.32013,251.21183 z"
     id="text2409" />
  <path
     transform="matrix(0.8050447,0.3787152,0.2063123,1.3392221,0,0)"
     style="font-size:88.92942047px;font-style:normal;font-weight:normal;fill:#0000ff;fill-opacity:1;stroke:#000000;stroke-width:1px;stroke-linecap:butt;stroke-linejoin:miter;stroke-opacity:1;font-family:Bitstream Vera Sans"
     d="M 78.393687,299.35759 L 78.393687,306.86969 L 36.317218,306.86969 C 36.259319,304.98805 36.563277,303.17878 37.229092,301.44187 C 38.300178,298.57599 40.015367,295.75352 42.374667,292.97447 C 44.733948,290.19544 48.142617,286.98217 52.600682,283.33466 C 59.519318,277.6608 64.194477,273.16657 66.626171,269.85195 C 69.0578,266.5374 70.27363,263.40374 70.273667,260.45096 C 70.27363,257.35354 69.166356,254.74095 66.95184,252.61319 C 64.737258,250.48554 61.84966,249.42169 58.289038,249.42163 C 54.525728,249.42169 51.515099,250.55067 49.257144,252.80859 C 46.999157,255.06662 45.855697,258.19304 45.826761,262.18787 L 37.793586,261.36284 C 38.3436,255.37058 40.413407,250.80397 44.003013,247.66302 C 47.592598,244.52218 52.412498,242.95173 58.462728,242.95167 C 64.570805,242.95173 69.40518,244.64521 72.965866,248.03211 C 76.526474,251.41913 78.306797,255.61664 78.306842,260.62465 C 78.306797,263.17216 77.785727,265.67619 76.74363,268.13676 C 75.701446,270.59741 73.971782,273.18828 71.554633,275.9094 C 69.137408,278.63057 65.120824,282.36491 59.50487,287.11242 C 54.815211,291.04942 51.804583,293.7199 50.472976,295.12389 C 49.141335,296.52789 48.041297,297.93912 47.17286,299.35759 L 78.393687,299.35759 z"
     id="text2417" />
  <path
     transform="matrix(0.8047072,0,0.1032511,1.242688,0,0)"
     style="font-size:96.79447174px;font-style:normal;font-weight:normal;fill:#0000ff;fill-opacity:1;stroke:#000000;stroke-width:1px;stroke-linecap:butt;stroke-linejoin:miter;stroke-opacity:1;font-family:Bitstream Vera Sans"
     d="M 57.214698,335.25043 L 48.707371,335.25043 L 48.707371,281.03985 C 46.659286,282.99344 43.973179,284.94697 40.649043,286.90045 C 37.324867,288.85403 34.339429,290.31918 31.692718,291.29591 L 31.692718,283.07216 C 36.450504,280.8351 40.609637,278.12536 44.170131,274.94293 C 47.730578,271.76063 50.251265,268.67279 51.732199,265.6794 L 57.214698,265.6794 L 57.214698,335.25043 z"
     id="text2413" />
  <path
     transform="matrix(0.8639583,0.6281697,8.0810566e-2,1.2162193,0,0)"
     style="font-size:88.71793365px;font-style:normal;font-weight:normal;fill:#0000ff;fill-opacity:1;stroke:#000000;stroke-width:1px;stroke-linecap:butt;stroke-linejoin:miter;stroke-opacity:1;font-family:Bitstream Vera Sans"
     d="M 227.16228,486.30685 L 219.3648,486.30685 L 219.3648,436.61961 C 217.48761,438.41019 215.02563,440.20072 211.97886,441.99121 C 208.93206,443.78178 206.19572,445.12468 203.76985,446.0199 L 203.76985,438.48234 C 208.13065,436.43195 211.94275,433.94831 215.20615,431.03142 C 218.46951,428.11465 220.77987,425.28446 222.13724,422.54084 L 227.16228,422.54084 L 227.16228,486.30685 z"
     id="text2456" />
  <path
     transform="matrix(0.8518291,0.6371142,7.9676051e-2,1.2335371,0,0)"
     style="font-size:89.98119354px;font-style:normal;font-weight:normal;fill:#0000ff;fill-opacity:1;stroke:#000000;stroke-width:1px;stroke-linecap:butt;stroke-linejoin:miter;stroke-opacity:1;font-family:Bitstream Vera Sans"
     d="M 280.65913,472.57919 L 272.75063,472.57919 L 272.75063,422.18445 C 270.84671,424.00053 268.34967,425.81655 265.25952,427.63253 C 262.16933,429.4486 259.39403,430.81062 256.93362,431.71859 L 256.93362,424.07371 C 261.35651,421.99411 265.22289,419.47511 268.53276,416.51669 C 271.84259,413.55838 274.18585,410.68789 275.56254,407.90521 L 280.65913,407.90521 L 280.65913,472.57919 z"
     id="text3348" />
  <path
     transform="matrix(0.7938339,0.5356559,0.186647,1.3856533,0,0)"
     style="font-size:75.49736023px;font-style:normal;font-weight:normal;fill:#0000ff;fill-opacity:1;stroke:#000000;stroke-width:1px;stroke-linecap:butt;stroke-linejoin:miter;stroke-opacity:1;font-family:Bitstream Vera Sans"
     d="M 87.177317,447.6121 L 87.177317,453.98956 L 51.456154,453.98956 C 51.407,452.39213 51.665047,450.85613 52.230297,449.38157 C 53.139604,446.94856 54.595728,444.5524 56.598674,442.1931 C 58.601606,439.83382 61.495423,437.10589 65.280134,434.0093 C 71.153767,429.19244 75.122781,425.37703 77.187188,422.56305 C 79.251539,419.74914 80.283728,417.08879 80.283759,414.58201 C 80.283728,411.95242 79.343699,409.73444 77.463668,407.92806 C 75.58358,406.12178 73.13213,405.21861 70.10931,405.21856 C 66.914417,405.21861 64.35852,406.17707 62.44161,408.09395 C 60.524673,410.01092 59.553924,412.66512 59.529358,416.05656 L 52.709528,415.35615 C 53.176468,410.26897 54.933647,406.39211 57.981072,403.72557 C 61.02848,401.05913 65.120374,399.72589 70.256766,399.72584 C 75.442268,399.72589 79.54645,401.16358 82.569324,404.03892 C 85.592131,406.91435 87.103551,410.47786 87.103589,414.72946 C 87.103551,416.89218 86.661184,419.018 85.776487,421.10692 C 84.891717,423.19591 83.423304,425.39546 81.371246,427.70557 C 79.319123,430.01573 75.909211,433.18603 71.141501,437.21647 C 67.160177,440.55881 64.604279,442.82594 63.4738,444.01787 C 62.343293,445.20981 61.409407,446.40789 60.67214,447.6121 L 87.177317,447.6121 z"
     id="text3352" />
</svg>
